<svg width="112" height="52" viewBox="0 0 112 52" fill="none" xmlns="http://www.w3.org/2000/svg">
<path d="M16.3319 20.9759C16.3344 18.7395 17.559 16.6736 19.5463 15.5534L29.2043 10.1098C29.7771 9.78695 30.4938 10.1899 30.4932 10.8345L30.4815 21.7022C30.4791 23.9385 29.2544 26.0044 27.267 27.1246L17.6092 32.5683C17.0363 32.8912 16.3196 32.4881 16.3203 31.8435L16.3319 20.9759Z" fill="white"/>
<path d="M12.0294 1.17987C14.0191 0.06374 16.4684 0.0637413 18.4583 1.17987L28.1277 6.60387C28.7013 6.92559 28.7013 7.73163 28.1277 8.05334L18.4583 13.4774C16.4684 14.5934 14.0191 14.5934 12.0294 13.4774L2.35984 8.05334C1.7863 7.73163 1.7863 6.92559 2.35984 6.60387L12.0294 1.17987Z" fill="#89E159"/>
<path d="M0.0116578 21.7022C0.0140565 23.9385 1.23876 26.0044 3.22612 27.1246L12.884 32.5683C13.4569 32.8912 14.1736 32.4881 14.1729 31.8435L14.1612 20.9759C14.1588 18.7395 12.9342 16.6736 10.9468 15.5534L1.2889 10.1098C0.716052 9.78695 -0.000690931 10.1899 4.99874e-07 10.8345L0.0116578 21.7022Z" fill="white"/>
<path d="M16.3319 39.429C16.3344 37.1927 17.559 35.1268 19.5463 34.0066L29.2043 28.563C29.7771 28.2401 30.4938 28.6431 30.4932 29.2877L30.4815 40.1553C30.4791 42.3917 29.2544 44.4575 27.267 45.5777L17.6092 51.0214C17.0363 51.3443 16.3196 50.9413 16.3203 50.2967L16.3319 39.429Z" fill="white"/>
<path d="M0.0116578 40.1553C0.0140565 42.3917 1.23876 44.4575 3.22612 45.5777L12.884 51.0214C13.4569 51.3443 14.1736 50.9413 14.1729 50.2967L14.1612 39.429C14.1588 37.1927 12.9342 35.1268 10.9468 34.0066L1.2889 28.563C0.716052 28.2401 -0.000690931 28.6431 4.99874e-07 29.2877L0.0116578 40.1553Z" fill="white"/>
<path d="M46.2079 14.2C47.0689 14.2 47.8142 14.3445 48.4438 14.6334C49.0826 14.9224 49.5733 15.3325 49.9159 15.8638C50.2584 16.3951 50.4297 17.0242 50.4297 17.7513C50.4297 18.469 50.2584 19.0981 49.9159 19.6388C49.5733 20.17 49.0826 20.5802 48.4438 20.8691C47.8142 21.1487 47.0689 21.2886 46.2079 21.2886H44.2498V23.987H42V14.2H46.2079ZM46.0829 19.443C46.7588 19.443 47.2726 19.2985 47.6244 19.0096C47.9763 18.7113 48.1522 18.2919 48.1522 17.7513C48.1522 17.2013 47.9763 16.7819 47.6244 16.4929C47.2726 16.1947 46.7588 16.0455 46.0829 16.0455H44.2498V19.443H46.0829Z" fill="white"/>
<path d="M56.6462 24.1547C55.6556 24.1547 54.7575 23.9403 53.952 23.5116C53.1558 23.0735 52.5262 22.4723 52.0633 21.708C51.6097 20.9344 51.3828 20.0629 51.3828 19.0935C51.3828 18.1241 51.6097 17.2573 52.0633 16.4929C52.5262 15.7193 53.1558 15.1181 53.952 14.6894C54.7575 14.2513 55.6602 14.0322 56.6601 14.0322C57.5026 14.0322 58.2618 14.1814 58.9376 14.4796C59.6228 14.7779 60.1968 15.2067 60.6597 15.7659L59.2154 17.1081C58.5581 16.3438 57.7433 15.9617 56.7712 15.9617C56.1694 15.9617 55.6324 16.0968 55.1602 16.3671C54.6881 16.6281 54.3177 16.9963 54.0492 17.4716C53.79 17.947 53.6604 18.4876 53.6604 19.0935C53.6604 19.6993 53.79 20.24 54.0492 20.7153C54.3177 21.1907 54.6881 21.5635 55.1602 21.8338C55.6324 22.0948 56.1694 22.2253 56.7712 22.2253C57.7433 22.2253 58.5581 21.8385 59.2154 21.0649L60.6597 22.4071C60.1968 22.9756 59.6228 23.4091 58.9376 23.7073C58.2525 24.0056 57.4887 24.1547 56.6462 24.1547Z" fill="white"/>
<path d="M63.686 14.2L65.6997 17.1641L67.7133 14.2H70.352L67.1162 18.8838L70.6158 23.987H67.9633L65.6997 20.7433L63.4638 23.987H60.8668L64.3387 18.9816L61.089 14.2H63.686Z" fill="white"/>
<path d="M71.6465 14.2H79.493V16.0036H73.8824V18.0169H76.5766C77.7524 18.0169 78.6458 18.2639 79.2569 18.7579C79.8772 19.2519 80.1874 19.965 80.1874 20.8971C80.1874 21.8758 79.8448 22.6354 79.1597 23.176C78.4746 23.7166 77.5071 23.987 76.2572 23.987H71.6465V14.2ZM76.1322 22.3092C76.7062 22.3092 77.146 22.1973 77.4515 21.9736C77.757 21.7406 77.9098 21.4051 77.9098 20.967C77.9098 20.1095 77.3173 19.6807 76.1322 19.6807H73.8824V22.3092H76.1322Z" fill="white"/>
<path d="M48.7354 36.8598C49.328 37.0369 49.7816 37.3258 50.0964 37.7266C50.4112 38.1274 50.5686 38.6214 50.5686 39.2087C50.5686 40.0755 50.2399 40.7513 49.5826 41.236C48.9345 41.7206 48.004 41.963 46.7912 41.963H42V32.176H46.5273C47.6568 32.176 48.5364 32.3951 49.1659 32.8332C49.7955 33.2712 50.1103 33.8957 50.1103 34.7067C50.1103 35.1913 49.9899 35.6201 49.7492 35.9929C49.5085 36.3565 49.1706 36.6454 48.7354 36.8598ZM44.2359 36.2306H46.3329C46.8236 36.2306 47.1939 36.1328 47.4439 35.937C47.6939 35.732 47.8189 35.4337 47.8189 35.0422C47.8189 34.6601 47.6892 34.3664 47.43 34.1614C47.18 33.9563 46.8143 33.8538 46.3329 33.8538H44.2359V36.2306ZM46.7079 40.2852C47.7633 40.2852 48.291 39.8658 48.291 39.0269C48.291 38.216 47.7633 37.8105 46.7079 37.8105H44.2359V40.2852H46.7079Z" fill="#89E159"/>
<path d="M66.4742 40.1174V44.0322H64.405V41.963H56.2808V32.176H58.5167V40.1174H62.8496V32.176H65.0855V40.1174H66.4742Z" fill="#89E159"/>
<path d="M67.9577 32.176H70.1936V38.5515L74.832 32.176H76.9429V41.963H74.7209V35.6015L70.0825 41.963H67.9577V32.176Z" fill="#89E159"/>
<path d="M90.8761 37.0415C90.8761 38.3372 90.4363 39.3578 89.5567 40.1035C88.6865 40.8398 87.432 41.2499 85.7932 41.3338V42.3964H83.724V41.3198C82.076 41.2266 80.8123 40.8119 79.9327 40.0755C79.0624 39.3298 78.6273 38.3185 78.6273 37.0415C78.6273 35.7553 79.0624 34.7486 79.9327 34.0216C80.8123 33.2852 82.076 32.8658 83.724 32.7633V31.7566H85.7932V32.7493C87.432 32.8425 88.6865 33.2619 89.5567 34.0076C90.4363 34.7533 90.8761 35.7646 90.8761 37.0415ZM85.7932 39.5582C86.7746 39.465 87.506 39.2133 87.9875 38.8032C88.4689 38.3838 88.7096 37.7919 88.7096 37.0276C88.7096 35.5362 87.7375 34.7067 85.7932 34.5389V39.5582ZM80.8076 37.0415C80.8076 38.5143 81.7797 39.3531 83.724 39.5582V34.5389C82.7334 34.6321 81.9973 34.8838 81.5159 35.2939C81.0437 35.6947 80.8076 36.2772 80.8076 37.0415Z" fill="#89E159"/>
<path d="M96.7671 32.176C97.6281 32.176 98.3734 32.3205 99.003 32.6095C99.6418 32.8984 100.132 33.3085 100.475 33.8398C100.818 34.3711 100.989 35.0003 100.989 35.7273C100.989 36.445 100.818 37.0742 100.475 37.6148C100.132 38.1461 99.6418 38.5562 99.003 38.8451C98.3734 39.1248 97.6281 39.2646 96.7671 39.2646H94.8089V41.963H92.5592V32.176H96.7671ZM96.6421 37.419C97.3179 37.419 97.8318 37.2746 98.1836 36.9856C98.5354 36.6874 98.7113 36.2679 98.7113 35.7273C98.7113 35.1774 98.5354 34.7579 98.1836 34.469C97.8318 34.1707 97.3179 34.0216 96.6421 34.0216H94.8089V37.419H96.6421Z" fill="#89E159"/>
<path d="M110 40.1454V41.963H102.473V32.176H109.819V33.9936H104.709V36.1188H109.222V37.8804H104.709V40.1454H110Z" fill="#89E159"/>
</svg>
